<svg width="185" height="134" viewBox="0 0 185 134" fill="none" xmlns="http://www.w3.org/2000/svg">
<path d="M47.8888 24C45.0275 24 42.2863 25.1441 40.2656 27.1605C38.2351 29.1851 37.0983 31.9381 37.0983 34.7973V34.8042C37.0828 35.2691 37.161 35.7323 37.3282 36.1663C37.4953 36.6003 37.7481 36.9963 38.0715 37.3306C38.3948 37.6649 38.7821 37.9308 39.2103 38.1123C39.6385 38.2939 40.0989 38.3875 40.564 38.3875C41.0291 38.3875 41.4895 38.2939 41.9177 38.1123C42.3459 37.9308 42.7332 37.6649 43.0565 37.3306C43.3799 36.9963 43.6327 36.6003 43.7999 36.1663C43.9671 35.7323 44.0452 35.2691 44.0297 34.8042V34.7973C44.0297 33.7739 44.4358 32.7885 45.1556 32.0708H45.1625C45.8914 31.3423 46.8642 30.9382 47.8889 30.9382H115.623C117.367 30.9382 119.043 31.6313 120.275 32.8643C121.511 34.0985 122.202 35.7716 122.201 37.5169V91.9644H81.0809C79.5243 86.0826 74.1835 81.6826 67.8352 81.6826C61.487 81.6826 56.1462 86.0826 54.5896 91.9644H49.3877C47.9656 91.9644 46.6065 91.403 45.6032 90.3977C44.5994 89.394 44.0297 88.0317 44.0297 86.6133V86.6063C44.0359 86.1427 43.949 85.6825 43.7742 85.2531C43.5993 84.8236 43.3402 84.4336 43.012 84.106C42.6838 83.7785 42.2933 83.5201 41.8635 83.3461C41.4337 83.1721 40.9734 83.0861 40.5098 83.0931C39.5919 83.1079 38.7174 83.4861 38.0779 84.1446C37.4384 84.8032 37.0861 85.6884 37.0983 86.6063V86.6133C37.0983 89.8716 38.3976 92.9994 40.6997 95.3013C43.0018 97.6058 46.1307 98.9026 49.3877 98.9026H54.5896C56.1484 104.781 61.4893 109.178 67.8352 109.178C74.1812 109.178 79.5221 104.781 81.0809 98.9026H125.674C125.712 98.9009 125.751 98.8986 125.789 98.8957H129.838C131.395 104.778 136.735 109.177 143.084 109.177C149.432 109.177 154.773 104.778 156.329 98.8957H161.097C164.256 98.8957 167.283 97.6369 169.514 95.4096C171.744 93.178 173 90.1438 173 86.9861V66.3954C173 63.2388 171.744 60.2103 169.514 57.9787C167.282 55.7476 164.253 54.4926 161.097 54.4926H159.164C158.541 52.5602 157.328 48.8057 155.882 44.3263C154.167 39.0169 149.193 35.3941 143.613 35.3941H128.929C128.483 32.5983 127.207 29.9869 125.179 27.9608C122.647 25.4266 119.205 24 115.623 24H47.8888ZM129.14 42.2102H143.613C146.265 42.2102 148.583 43.8922 149.398 46.4152C150.546 49.9727 151.184 51.9558 152.002 54.4928H129.14V42.2102ZM28.546 43.7362C28.0824 43.7242 27.6212 43.8052 27.1894 43.9744C26.7576 44.1435 26.3641 44.3974 26.032 44.721C25.6999 45.0446 25.436 45.4315 25.2558 45.8587C25.0756 46.286 24.9827 46.745 24.9827 47.2087C24.9827 47.6724 25.0756 48.1314 25.2558 48.5587C25.436 48.9859 25.6999 49.3728 26.032 49.6964C26.3641 50.02 26.7576 50.2739 27.1894 50.443C27.6212 50.6122 28.0824 50.6931 28.546 50.6812H60.5986C61.0622 50.6931 61.5234 50.6122 61.9552 50.443C62.3869 50.2739 62.7805 50.02 63.1126 49.6964C63.4446 49.3728 63.7086 48.9859 63.8888 48.5587C64.069 48.1314 64.1618 47.6724 64.1618 47.2087C64.1618 46.745 64.069 46.286 63.8888 45.8587C63.7086 45.4315 63.4446 45.0446 63.1126 44.721C62.7805 44.3974 62.3869 44.1435 61.9552 43.9744C61.5234 43.8052 61.0622 43.7242 60.5986 43.7362H28.546ZM16.5008 57.6736C16.0439 57.6659 15.59 57.7492 15.1656 57.9187C14.7412 58.0882 14.3548 58.3405 14.029 58.6609C13.7031 58.9813 13.4443 59.3633 13.2676 59.7848C13.091 60.2062 13 60.6586 13 61.1156C13 61.5726 13.091 62.025 13.2676 62.4464C13.4443 62.8679 13.7031 63.2499 14.029 63.5703C14.3548 63.8907 14.7412 64.143 15.1656 64.3125C15.59 64.482 16.0439 64.5653 16.5008 64.5576H70.0666C70.5235 64.5653 70.9774 64.482 71.4018 64.3125C71.8261 64.143 72.2125 63.8907 72.5384 63.5703C72.8642 63.2499 73.123 62.8679 73.2997 62.4464C73.4764 62.025 73.5673 61.5726 73.5673 61.1156C73.5673 60.6586 73.4764 60.2062 73.2997 59.7848C73.123 59.3633 72.8642 58.9813 72.5384 58.6609C72.2125 58.3405 71.8261 58.0882 71.4018 57.9187C70.9774 57.7492 70.5235 57.6659 70.0666 57.6736H16.5008ZM129.14 61.431H161.097C162.416 61.431 163.675 61.9477 164.61 62.8823C165.544 63.8164 166.069 65.0767 166.069 66.3955V86.9863C166.069 88.3077 165.544 89.5722 164.61 90.5062C163.674 91.4409 162.417 91.9644 161.097 91.9644H156.329C154.773 86.0826 149.432 81.6826 143.084 81.6826C136.735 81.6826 131.395 86.0826 129.838 91.9644H129.14V61.431ZM36.1556 71.8823C35.7441 71.8823 35.3367 71.9634 34.9565 72.1208C34.5763 72.2783 34.2309 72.5091 33.94 72.8001C33.649 73.091 33.4182 73.4365 33.2607 73.8166C33.1033 74.1968 33.0222 74.6042 33.0222 75.0157C33.0222 75.4272 33.1033 75.8346 33.2607 76.2148C33.4182 76.595 33.649 76.9404 33.94 77.2313C34.2309 77.5223 34.5763 77.7531 34.9565 77.9106C35.3367 78.068 35.7441 78.1491 36.1556 78.1491H53.7486C54.1601 78.1491 54.5675 78.068 54.9477 77.9106C55.3279 77.7531 55.6733 77.5223 55.9642 77.2313C56.2552 76.9404 56.486 76.595 56.6435 76.2148C56.8009 75.8346 56.882 75.4272 56.882 75.0157C56.882 74.6042 56.8009 74.1968 56.6435 73.8166C56.486 73.4365 56.2552 73.091 55.9642 72.8001C55.6733 72.5091 55.3279 72.2783 54.9477 72.1208C54.5675 71.9634 54.1601 71.8823 53.7486 71.8823H36.1556ZM67.8352 88.6276C71.6333 88.6276 74.6378 91.632 74.6378 95.4301C74.6378 99.2282 71.6333 102.233 67.8352 102.233C64.0371 102.233 61.0327 99.2282 61.0327 95.4301C61.0327 91.632 64.0371 88.6276 67.8352 88.6276ZM143.084 88.6276C146.677 88.6276 149.525 91.3272 149.825 94.8333C149.757 95.226 149.757 95.6275 149.825 96.0202C149.528 99.5296 146.679 102.233 143.084 102.233C139.509 102.233 136.668 99.561 136.342 96.0812C136.424 95.6532 136.424 95.2138 136.342 94.7858C136.665 91.3028 139.507 88.6276 143.084 88.6276Z" fill="#00B0E1"/>
</svg>
