<svg width="141" height="136" viewBox="0 0 141 136" fill="none" xmlns="http://www.w3.org/2000/svg">
<path fill-rule="evenodd" clip-rule="evenodd" d="M21 93.8729V50.051C21 44.1068 24.8108 38.8289 30.4511 36.9557L91.4333 16.7091C95.6708 15.3005 100.323 16.0165 103.944 18.6262C107.565 21.2388 109.707 25.4326 109.707 29.8951V39.8108C115.648 41.4883 120 46.9475 120 53.4236V93.8729C120 101.682 113.67 108.014 105.858 108.014H35.1445C27.3329 108.014 21 101.682 21 93.8729ZM103.862 39.2819V29.8951C103.862 27.3088 102.62 24.8802 100.525 23.3664C98.4267 21.8526 95.7322 21.4405 93.2774 22.2559L42.0005 39.2819H103.862ZM114.155 62.0622V53.4236C114.155 48.8412 110.441 45.1267 105.858 45.1267H35.1445C30.5622 45.1267 26.8449 48.8412 26.8449 53.4236V93.8729C26.8449 98.4552 30.5622 102.17 35.1445 102.17H105.858C110.441 102.17 114.155 98.4552 114.155 93.8729V85.2312H96.6878C94.7269 85.2312 92.8448 84.4539 91.4567 83.0657C90.0714 81.6805 89.2912 79.7985 89.2912 77.8375V69.4589C89.2912 67.498 90.0714 65.6159 91.4567 64.2277C92.8448 62.8425 94.7269 62.0622 96.6878 62.0622H114.155ZM114.155 79.3864V67.9071H96.6878C96.2758 67.9071 95.8813 68.0708 95.5919 68.363C95.2997 68.6523 95.136 69.0468 95.136 69.4589V77.8375C95.136 78.2467 95.2997 78.6412 95.5919 78.9334C95.8813 79.2227 96.2758 79.3864 96.6878 79.3864H114.155ZM102.688 68.813C105.356 68.813 107.521 70.9785 107.521 73.6467C107.521 76.3149 105.356 78.4833 102.688 78.4833C100.017 78.4833 97.851 76.3149 97.851 73.6467C97.851 70.9785 100.017 68.813 102.688 68.813Z" fill="#00B0E1"/>
</svg>
