<svg width="22" height="21" viewBox="0 0 22 21" fill="none" xmlns="http://www.w3.org/2000/svg">
<g id="phone-call 1" clip-path="url(#clip0_108_2634)">
<g id="Group">
<g id="Group_2">
<path id="Vector" d="M21.4016 15.4119L18.3314 12.4813C17.2349 11.4346 15.3709 11.8533 14.9323 13.2139C14.6033 14.1559 13.5068 14.6793 12.52 14.4699C10.327 13.9466 7.36651 11.2253 6.81827 9.02733C6.48932 8.08531 7.14722 7.03866 8.13406 6.72471C9.55949 6.30605 9.99809 4.52675 8.9016 3.4801L5.83143 0.54949C4.95424 -0.183163 3.63846 -0.183163 2.87091 0.54949L0.787588 2.53812C-1.29574 4.63141 1.00689 10.1786 6.16038 15.0979C11.3139 20.0171 17.1253 22.3198 19.3182 20.2265L21.4016 18.2378C22.1691 17.4005 22.1691 16.1445 21.4016 15.4119Z" fill="white"/>
</g>
</g>
</g>
<defs>
<clipPath id="clip0_108_2634">
<rect width="22" height="21" fill="white"/>
</clipPath>
</defs>
</svg>
