<svg width="28" height="28" viewBox="0 0 28 28" fill="none" xmlns="http://www.w3.org/2000/svg">
<g id="Group">
<g id="Group_2">
<path id="Vector" fill-rule="evenodd" clip-rule="evenodd" d="M27.6091 25.7248C28.1298 26.2448 28.1298 27.0901 27.6091 27.6101C27.0891 28.1308 26.2438 28.1308 25.7238 27.6101C25.7238 27.6101 21.2084 23.0954 19.7977 21.6841C19.7477 21.6341 19.7197 21.5667 19.7197 21.4961C19.7197 21.4254 19.7477 21.3574 19.7977 21.3074C20.2517 20.8534 20.8524 20.2527 21.3064 19.7987C21.3564 19.7487 21.4244 19.7207 21.4951 19.7207C21.5658 19.7207 21.6331 19.7487 21.6831 19.7987L27.6091 25.7248Z" fill="black"/>
<path id="Vector_2" fill-rule="evenodd" clip-rule="evenodd" d="M11.3334 0C17.5888 0 22.6669 5.07805 22.6669 11.3334C22.6669 17.5888 17.5888 22.6669 11.3334 22.6669C5.07805 22.6669 0 17.5888 0 11.3334C0 5.07805 5.07805 0 11.3334 0ZM11.3334 1.33335C5.81405 1.33335 1.33335 5.81405 1.33335 11.3334C1.33335 16.8528 5.81405 21.3335 11.3334 21.3335C16.8528 21.3335 21.3335 16.8528 21.3335 11.3334C21.3335 5.81405 16.8528 1.33335 11.3334 1.33335Z" fill="black"/>
</g>
</g>
</svg>
