<svg width="28" height="28" viewBox="0 0 28 28" fill="none" xmlns="http://www.w3.org/2000/svg">
<g id="whatsapp 1" clip-path="url(#clip0_108_2629)">
<path id="Vector" d="M20.1136 16.4743L20.1036 16.5575C17.6624 15.3408 17.4071 15.1787 17.0918 15.6517C16.8731 15.9792 16.2359 16.7218 16.0438 16.9417C15.8495 17.1581 15.6564 17.1748 15.3267 17.0249C14.9936 16.8584 13.9245 16.5087 12.659 15.3764C11.6732 14.4938 11.0115 13.4114 10.8161 13.0784C10.4909 12.5166 11.1714 12.4367 11.7908 11.2644C11.9019 11.0312 11.8452 10.8481 11.7631 10.6827C11.6798 10.5161 11.0171 8.88423 10.7395 8.23368C10.4731 7.58536 10.1989 7.66751 9.99352 7.66751C9.35407 7.612 8.8867 7.62088 8.47484 8.0494C6.68306 10.0188 7.13489 12.0504 8.668 14.2107C11.6809 18.1539 13.2862 18.88 16.2214 19.888C17.0141 20.14 17.7368 20.1045 18.3085 20.0223C18.9457 19.9213 20.2701 19.2219 20.5466 18.4392C20.8296 17.6566 20.8296 17.0072 20.7464 16.8573C20.6642 16.7074 20.4466 16.6242 20.1136 16.4743Z" fill="white"/>
<path id="Vector_2" d="M23.4584 4.4205C14.9225 -3.83121 0.795898 2.15358 0.790347 13.7946C0.790347 16.1214 1.39982 18.3906 2.56103 20.3944L0.678223 27.2351L7.71099 25.4011C16.4867 30.1414 27.3173 23.8469 27.3217 13.8012C27.3217 10.2754 25.9451 6.95718 23.4417 4.46379L23.4584 4.4205ZM25.1036 13.7646C25.097 22.2383 15.7951 27.5304 8.43814 23.2053L8.03848 22.9677L3.87544 24.0501L4.99114 20.0036L4.72581 19.5873C0.147573 12.2992 5.40744 2.77415 14.0799 2.77415C17.0262 2.77415 19.7916 3.92315 21.8742 6.00467C23.9557 8.06843 25.1036 10.8338 25.1036 13.7646Z" fill="white"/>
</g>
<defs>
<clipPath id="clip0_108_2629">
<rect width="26.6435" height="26.6435" fill="white" transform="translate(0.678223 0.591492)"/>
</clipPath>
</defs>
</svg>
